<svg width="190" height="30" viewBox="0 0 190 30" fill="none" xmlns="http://www.w3.org/2000/svg">
<path d="M5.44444 11.8876L5.56365 12.0931C5.98157 12.8961 6.12783 13.7316 6.0412 14.4446C5.94725 15.2177 5.58756 15.8157 5.03704 16.1303C4.48534 16.4456 3.78004 16.4553 3.05521 16.148C2.33061 15.8409 1.61921 15.2262 1.11797 14.3623C0.61605 13.4973 0.43432 12.5783 0.526479 11.8042C0.618559 11.0307 0.975774 10.4337 1.52537 10.1196C2.07707 9.80439 2.78237 9.79466 3.5072 10.1019C4.23181 10.4091 4.9432 11.0238 5.44444 11.8876ZM4.5234 23.6818L4.52345 23.6816C7.53354 15.5647 12.8229 13.625 15 13.625C17.177 13.625 22.4664 15.5647 25.4765 23.6816L25.4765 23.6818C25.6638 24.1865 25.75 24.7358 25.75 25.2949V25.3887C25.75 26.6242 24.7492 27.625 23.5136 27.625C22.8805 27.625 22.2536 27.5479 21.6437 27.3941L21.6427 27.3938L16.4865 26.1048L16.4857 26.1046C15.5101 25.8623 14.4898 25.8623 13.5142 26.1046L13.5135 26.1048L8.3572 27.3938L8.35618 27.3941C7.7463 27.5479 7.11943 27.625 6.48628 27.625C5.25071 27.625 4.24996 26.6242 4.24996 25.3887V25.2949C4.24996 24.7358 4.33607 24.1865 4.5234 23.6818ZM12.7971 5.60145C13.1851 6.76537 13.1742 7.91606 12.8665 8.82936C12.5589 9.74213 11.9691 10.3895 11.2054 10.6401C10.4415 10.8908 9.57627 10.7193 8.77795 10.1659C7.97966 9.61263 7.27824 8.69316 6.89031 7.52937C6.50234 6.36545 6.51326 5.21477 6.82096 4.30146C7.12847 3.38869 7.71829 2.74132 8.48203 2.49068C9.24596 2.23998 10.1111 2.41154 10.9095 2.96487C11.7077 3.51819 12.4092 4.43766 12.7971 5.60145ZM24.9629 16.1303C24.4124 15.8157 24.0527 15.2177 23.9587 14.4446C23.8647 13.6709 24.045 12.7528 24.549 11.8886C25.0535 11.0239 25.7653 10.409 26.4892 10.1019C27.2131 9.7947 27.9169 9.80436 28.4687 10.1196C29.0192 10.4342 29.3789 11.0322 29.4728 11.8054C29.5669 12.5791 29.3866 13.4972 28.8825 14.3613C28.3781 15.2261 27.6663 15.8409 26.9424 16.1481C26.2184 16.4553 25.5146 16.4456 24.9629 16.1303ZM18.3258 10.6401C17.562 10.3895 16.9722 9.74213 16.6647 8.82936C16.357 7.91606 16.3461 6.76537 16.7341 5.60145C17.122 4.43766 17.8234 3.51819 18.6217 2.96487C19.42 2.41154 20.2852 2.23998 21.0491 2.49068C21.8129 2.74132 22.4027 3.38869 22.7102 4.30146C23.0179 5.21477 23.0288 6.36545 22.6408 7.52937C22.2529 8.69316 21.5515 9.61263 20.7532 10.1659C19.9549 10.7193 19.0897 10.8908 18.3258 10.6401Z" fill="#FFC145" stroke="#FF8308"/>
<path d="M45.4444 11.8876L45.5637 12.0931C45.9816 12.8961 46.1278 13.7316 46.0412 14.4446C45.9473 15.2177 45.5876 15.8157 45.037 16.1303C44.4853 16.4456 43.78 16.4553 43.0552 16.148C42.3306 15.8409 41.6192 15.2262 41.118 14.3623C40.6161 13.4973 40.4343 12.5783 40.5265 11.8042C40.6186 11.0307 40.9758 10.4337 41.5254 10.1196C42.0771 9.80439 42.7824 9.79466 43.5072 10.1019C44.2318 10.4091 44.9432 11.0238 45.4444 11.8876ZM44.5234 23.6818L44.5234 23.6816C47.5335 15.5647 52.8229 13.625 55 13.625C57.177 13.625 62.4664 15.5647 65.4765 23.6816L65.4765 23.6818C65.6638 24.1865 65.75 24.7358 65.75 25.2949V25.3887C65.75 26.6242 64.7492 27.625 63.5136 27.625C62.8805 27.625 62.2536 27.5479 61.6437 27.3941L61.6427 27.3938L56.4865 26.1048L56.4857 26.1046C55.5101 25.8623 54.4898 25.8623 53.5142 26.1046L53.5135 26.1048L48.3572 27.3938L48.3562 27.3941C47.7463 27.5479 47.1194 27.625 46.4863 27.625C45.2507 27.625 44.25 26.6242 44.25 25.3887V25.2949C44.25 24.7358 44.3361 24.1865 44.5234 23.6818ZM52.7971 5.60145C53.1851 6.76537 53.1742 7.91606 52.8665 8.82936C52.5589 9.74213 51.9691 10.3895 51.2054 10.6401C50.4415 10.8908 49.5763 10.7193 48.778 10.1659C47.9797 9.61263 47.2782 8.69316 46.8903 7.52937C46.5023 6.36545 46.5133 5.21477 46.821 4.30146C47.1285 3.38869 47.7183 2.74132 48.482 2.49068C49.246 2.23998 50.1111 2.41154 50.9095 2.96487C51.7077 3.51819 52.4092 4.43766 52.7971 5.60145ZM64.9629 16.1303C64.4124 15.8157 64.0527 15.2177 63.9587 14.4446C63.8647 13.6709 64.045 12.7528 64.549 11.8886C65.0535 11.0239 65.7653 10.409 66.4892 10.1019C67.2131 9.7947 67.9169 9.80436 68.4687 10.1196C69.0192 10.4342 69.3789 11.0322 69.4728 11.8054C69.5669 12.5791 69.3866 13.4972 68.8825 14.3613C68.3781 15.2261 67.6663 15.8409 66.9424 16.1481C66.2184 16.4553 65.5146 16.4456 64.9629 16.1303ZM58.3258 10.6401C57.562 10.3895 56.9722 9.74213 56.6647 8.82936C56.357 7.91606 56.3461 6.76537 56.7341 5.60145C57.122 4.43766 57.8234 3.51819 58.6217 2.96487C59.42 2.41154 60.2852 2.23998 61.0491 2.49068C61.8129 2.74132 62.4027 3.38869 62.7102 4.30146C63.0179 5.21477 63.0288 6.36545 62.6408 7.52937C62.2529 8.69316 61.5515 9.61263 60.7532 10.1659C59.9549 10.7193 59.0897 10.8908 58.3258 10.6401Z" fill="#FFC145" stroke="#FF8308"/>
<path d="M125.444 11.8876L125.564 12.0931C125.982 12.8961 126.128 13.7316 126.041 14.4446C125.947 15.2177 125.588 15.8157 125.037 16.1303C124.485 16.4456 123.78 16.4553 123.055 16.148C122.331 15.8409 121.619 15.2262 121.118 14.3623C120.616 13.4973 120.434 12.5783 120.526 11.8042C120.619 11.0307 120.976 10.4337 121.525 10.1196C122.077 9.80439 122.782 9.79466 123.507 10.1019C124.232 10.4091 124.943 11.0238 125.444 11.8876ZM124.523 23.6818L124.523 23.6816C127.534 15.5647 132.823 13.625 135 13.625C137.177 13.625 142.466 15.5647 145.476 23.6816L145.477 23.6818C145.664 24.1865 145.75 24.7358 145.75 25.2949V25.3887C145.75 26.6242 144.749 27.625 143.514 27.625C142.88 27.625 142.254 27.5479 141.644 27.3941L141.643 27.3938L136.486 26.1048L136.486 26.1046C135.51 25.8623 134.49 25.8623 133.514 26.1046L133.513 26.1048L128.357 27.3938L128.356 27.3941C127.746 27.5479 127.119 27.625 126.486 27.625C125.251 27.625 124.25 26.6242 124.25 25.3887V25.2949C124.25 24.7358 124.336 24.1865 124.523 23.6818ZM132.797 5.60145C133.185 6.76537 133.174 7.91606 132.866 8.82936C132.559 9.74213 131.969 10.3895 131.205 10.6401C130.441 10.8908 129.576 10.7193 128.778 10.1659C127.98 9.61263 127.278 8.69316 126.89 7.52937C126.502 6.36545 126.513 5.21477 126.821 4.30146C127.128 3.38869 127.718 2.74132 128.482 2.49068C129.246 2.23998 130.111 2.41154 130.909 2.96487C131.708 3.51819 132.409 4.43766 132.797 5.60145ZM144.963 16.1303C144.412 15.8157 144.053 15.2177 143.959 14.4446C143.865 13.6709 144.045 12.7528 144.549 11.8886C145.053 11.0239 145.765 10.409 146.489 10.1019C147.213 9.79471 147.917 9.80436 148.469 10.1196C149.019 10.4342 149.379 11.0322 149.473 11.8054C149.567 12.5791 149.387 13.4972 148.883 14.3613C148.378 15.2261 147.666 15.8409 146.942 16.1481C146.218 16.4553 145.515 16.4456 144.963 16.1303ZM138.326 10.6401C137.562 10.3895 136.972 9.74213 136.665 8.82936C136.357 7.91606 136.346 6.76537 136.734 5.60145C137.122 4.43766 137.823 3.51819 138.622 2.96487C139.42 2.41154 140.285 2.23998 141.049 2.49068C141.813 2.74132 142.403 3.38869 142.71 4.30146C143.018 5.21477 143.029 6.36545 142.641 7.52937C142.253 8.69316 141.552 9.61263 140.753 10.1659C139.955 10.7193 139.09 10.8908 138.326 10.6401Z" fill="#FFC145" stroke="#FF8308"/>
<path d="M165.444 11.8876L165.564 12.0931C165.982 12.8961 166.128 13.7316 166.041 14.4446C165.947 15.2177 165.588 15.8157 165.037 16.1303C164.485 16.4456 163.78 16.4553 163.055 16.148C162.331 15.8409 161.619 15.2262 161.118 14.3623C160.616 13.4973 160.434 12.5783 160.526 11.8042C160.619 11.0307 160.976 10.4337 161.525 10.1196C162.077 9.80439 162.782 9.79466 163.507 10.1019C164.232 10.4091 164.943 11.0238 165.444 11.8876ZM164.523 23.6818L164.523 23.6816C167.534 15.5647 172.823 13.625 175 13.625C177.177 13.625 182.466 15.5647 185.476 23.6816L185.477 23.6818C185.664 24.1865 185.75 24.7358 185.75 25.2949V25.3887C185.75 26.6242 184.749 27.625 183.514 27.625C182.88 27.625 182.254 27.5479 181.644 27.3941L181.643 27.3938L176.486 26.1048L176.486 26.1046C175.51 25.8623 174.49 25.8623 173.514 26.1046L173.513 26.1048L168.357 27.3938L168.356 27.3941C167.746 27.5479 167.119 27.625 166.486 27.625C165.251 27.625 164.25 26.6242 164.25 25.3887V25.2949C164.25 24.7358 164.336 24.1865 164.523 23.6818ZM172.797 5.60145C173.185 6.76537 173.174 7.91606 172.866 8.82936C172.559 9.74213 171.969 10.3895 171.205 10.6401C170.441 10.8908 169.576 10.7193 168.778 10.1659C167.98 9.61263 167.278 8.69316 166.89 7.52937C166.502 6.36545 166.513 5.21477 166.821 4.30146C167.128 3.38869 167.718 2.74132 168.482 2.49068C169.246 2.23998 170.111 2.41154 170.909 2.96487C171.708 3.51819 172.409 4.43766 172.797 5.60145ZM184.963 16.1303C184.412 15.8157 184.053 15.2177 183.959 14.4446C183.865 13.6709 184.045 12.7528 184.549 11.8886C185.053 11.0239 185.765 10.409 186.489 10.1019C187.213 9.7947 187.917 9.80436 188.469 10.1196C189.019 10.4342 189.379 11.0322 189.473 11.8054C189.567 12.5791 189.387 13.4972 188.883 14.3613C188.378 15.2261 187.666 15.8409 186.942 16.1481C186.218 16.4553 185.515 16.4456 184.963 16.1303ZM178.326 10.6401C177.562 10.3895 176.972 9.74213 176.665 8.82936C176.357 7.91606 176.346 6.76537 176.734 5.60145C177.122 4.43766 177.823 3.51819 178.622 2.96487C179.42 2.41154 180.285 2.23998 181.049 2.49068C181.813 2.74132 182.403 3.38869 182.71 4.30146C183.018 5.21477 183.029 6.36545 182.641 7.52937C182.253 8.69316 181.552 9.61263 180.753 10.1659C179.955 10.7193 179.09 10.8908 178.326 10.6401Z" fill="#FAFCFF" stroke="#FF8308"/>
<path d="M85.4444 11.8876L85.5637 12.0931C85.9816 12.8961 86.1278 13.7316 86.0412 14.4446C85.9473 15.2177 85.5876 15.8157 85.037 16.1303C84.4853 16.4456 83.78 16.4553 83.0552 16.148C82.3306 15.8409 81.6192 15.2262 81.118 14.3623C80.6161 13.4973 80.4343 12.5783 80.5265 11.8042C80.6186 11.0307 80.9758 10.4337 81.5254 10.1196C82.0771 9.80439 82.7824 9.79466 83.5072 10.1019C84.2318 10.4091 84.9432 11.0238 85.4444 11.8876ZM84.5234 23.6818L84.5234 23.6816C87.5335 15.5647 92.8229 13.625 95 13.625C97.177 13.625 102.466 15.5647 105.476 23.6816L105.477 23.6818C105.664 24.1865 105.75 24.7358 105.75 25.2949V25.3887C105.75 26.6242 104.749 27.625 103.514 27.625C102.88 27.625 102.254 27.5479 101.644 27.3941L101.643 27.3938L96.4865 26.1048L96.4857 26.1046C95.5101 25.8623 94.4898 25.8623 93.5142 26.1046L93.5135 26.1048L88.3572 27.3938L88.3562 27.3941C87.7463 27.5479 87.1194 27.625 86.4863 27.625C85.2507 27.625 84.25 26.6242 84.25 25.3887V25.2949C84.25 24.7358 84.3361 24.1865 84.5234 23.6818ZM92.7971 5.60145C93.1851 6.76537 93.1742 7.91606 92.8665 8.82936C92.5589 9.74213 91.9691 10.3895 91.2054 10.6401C90.4415 10.8908 89.5763 10.7193 88.778 10.1659C87.9797 9.61263 87.2782 8.69316 86.8903 7.52937C86.5023 6.36545 86.5133 5.21477 86.821 4.30146C87.1285 3.38869 87.7183 2.74132 88.482 2.49068C89.246 2.23998 90.1111 2.41154 90.9095 2.96487C91.7077 3.51819 92.4092 4.43766 92.7971 5.60145ZM104.963 16.1303C104.412 15.8157 104.053 15.2177 103.959 14.4446C103.865 13.6709 104.045 12.7528 104.549 11.8886C105.053 11.0239 105.765 10.409 106.489 10.1019C107.213 9.7947 107.917 9.80436 108.469 10.1196C109.019 10.4342 109.379 11.0322 109.473 11.8054C109.567 12.5791 109.387 13.4972 108.883 14.3613C108.378 15.2261 107.666 15.8409 106.942 16.1481C106.218 16.4553 105.515 16.4456 104.963 16.1303ZM98.3258 10.6401C97.562 10.3895 96.9722 9.74213 96.6647 8.82936C96.357 7.91606 96.3461 6.76537 96.7341 5.60145C97.122 4.43766 97.8234 3.51819 98.6217 2.96487C99.42 2.41154 100.285 2.23998 101.049 2.49068C101.813 2.74132 102.403 3.38869 102.71 4.30146C103.018 5.21477 103.029 6.36545 102.641 7.52937C102.253 8.69316 101.552 9.61263 100.753 10.1659C99.9549 10.7193 99.0897 10.8908 98.3258 10.6401Z" fill="#FFC145" stroke="#FF8308"/>
</svg>
