<svg width="192" height="77" viewBox="0 0 192 77" fill="none" xmlns="http://www.w3.org/2000/svg">
<path d="M72.3157 57.3964C71.3718 57.3964 70.6356 57.1321 70.107 56.6036C69.6161 56.075 69.3707 55.3387 69.3707 54.3948V20.0735C69.3707 19.0918 69.635 18.3556 70.1636 17.8647C70.6922 17.3361 71.4285 17.0718 72.3724 17.0718H85.9083C90.2126 17.0718 93.5353 18.1479 95.8762 20.3001C98.2171 22.4145 99.3876 25.3973 99.3876 29.2485C99.3876 33.1375 98.2171 36.1581 95.8762 38.3102C93.5353 40.4246 90.2126 41.4818 85.9083 41.4818H75.2608V54.3948C75.2608 55.3387 75.0154 56.075 74.5245 56.6036C74.0337 57.1321 73.2974 57.3964 72.3157 57.3964ZM75.2608 36.7811H85.0588C87.8906 36.7811 90.0238 36.1581 91.4586 34.9121C92.9311 33.6283 93.6674 31.7405 93.6674 29.2485C93.6674 26.7943 92.9311 24.9442 91.4586 23.6982C90.0238 22.4145 87.8906 21.7726 85.0588 21.7726H75.2608V36.7811ZM116.727 57.5097C113.707 57.5097 111.102 56.9434 108.912 55.8107C106.76 54.6402 105.079 52.9977 103.871 50.8833C102.701 48.7312 102.115 46.1826 102.115 43.2375C102.115 40.368 102.701 37.8571 103.871 35.705C105.042 33.5528 106.646 31.8726 108.685 30.6644C110.724 29.4562 113.046 28.8521 115.651 28.8521C117.577 28.8521 119.295 29.173 120.805 29.8149C122.315 30.419 123.599 31.3251 124.656 32.5334C125.751 33.7038 126.563 35.1386 127.092 36.8377C127.658 38.5368 127.941 40.4435 127.941 42.5579C127.941 43.1998 127.753 43.6906 127.375 44.0304C126.997 44.3325 126.431 44.4835 125.676 44.4835H106.646V40.9721H124.09L123.127 41.765C123.127 39.8771 122.844 38.2725 122.278 36.951C121.749 35.6295 120.937 34.6289 119.842 33.9493C118.785 33.2319 117.464 32.8732 115.878 32.8732C114.103 32.8732 112.593 33.2885 111.347 34.1192C110.139 34.9498 109.214 36.1014 108.572 37.574C107.93 39.0465 107.609 40.7644 107.609 42.7278V43.0676C107.609 46.3902 108.383 48.9011 109.931 50.6002C111.517 52.2615 113.801 53.0921 116.784 53.0921C117.917 53.0921 119.106 52.9411 120.352 52.6391C121.636 52.337 122.844 51.8273 123.977 51.1099C124.619 50.7323 125.185 50.5624 125.676 50.6002C126.204 50.6379 126.62 50.8078 126.922 51.1099C127.262 51.4119 127.469 51.7895 127.545 52.2426C127.62 52.6957 127.545 53.1677 127.318 53.6585C127.092 54.1116 126.695 54.5269 126.129 54.9045C124.845 55.7729 123.354 56.4336 121.655 56.8867C119.956 57.3021 118.313 57.5097 116.727 57.5097ZM145.902 57.5097C143.637 57.5097 141.73 57.1133 140.182 56.3204C138.634 55.5275 137.483 54.357 136.727 52.809C135.972 51.2609 135.595 49.3731 135.595 47.1454V33.7794H132.197C131.441 33.7794 130.856 33.5906 130.441 33.213C130.025 32.7977 129.818 32.2502 129.818 31.5706C129.818 30.8532 130.025 30.3057 130.441 29.9281C130.856 29.5506 131.441 29.3618 132.197 29.3618H135.595V23.5283C135.595 22.5844 135.84 21.867 136.331 21.3761C136.86 20.8853 137.577 20.6399 138.483 20.6399C139.389 20.6399 140.088 20.8853 140.579 21.3761C141.069 21.867 141.315 22.5844 141.315 23.5283V29.3618H147.941C148.696 29.3618 149.282 29.5506 149.697 29.9281C150.112 30.3057 150.32 30.8532 150.32 31.5706C150.32 32.2502 150.112 32.7977 149.697 33.213C149.282 33.5906 148.696 33.7794 147.941 33.7794H141.315V46.6923C141.315 48.6934 141.73 50.2037 142.561 51.2232C143.429 52.2426 144.826 52.7523 146.752 52.7523C147.432 52.7523 148.017 52.6957 148.508 52.5824C149.036 52.4314 149.47 52.337 149.81 52.2992C150.226 52.2992 150.565 52.4503 150.83 52.7523C151.094 53.0166 151.226 53.5452 151.226 54.3381C151.226 54.9045 151.113 55.4331 150.886 55.9239C150.698 56.4148 150.339 56.7357 149.81 56.8867C149.357 57.0378 148.734 57.1699 147.941 57.2832C147.186 57.4342 146.506 57.5097 145.902 57.5097ZM164.492 57.5097C162.831 57.5097 161.113 57.3209 159.338 56.9434C157.601 56.5658 155.997 55.9239 154.524 55.0178C154.033 54.6779 153.694 54.3004 153.505 53.885C153.316 53.4697 153.24 53.0544 153.278 52.6391C153.354 52.186 153.524 51.8084 153.788 51.5063C154.09 51.1665 154.449 50.9589 154.864 50.8833C155.317 50.8078 155.789 50.9022 156.28 51.1665C157.752 51.9972 159.168 52.5824 160.528 52.9222C161.887 53.2243 163.227 53.3753 164.549 53.3753C166.55 53.3753 168.06 53.0166 169.08 52.2992C170.099 51.5819 170.609 50.619 170.609 49.4108C170.609 48.4291 170.269 47.674 169.589 47.1454C168.91 46.579 167.89 46.1448 166.531 45.8428L161.151 44.7667C158.81 44.2758 157.035 43.4074 155.827 42.1614C154.619 40.9155 154.015 39.3297 154.015 37.404C154.015 35.6672 154.486 34.1569 155.43 32.8732C156.374 31.5894 157.696 30.6078 159.395 29.9281C161.094 29.2107 163.057 28.8521 165.285 28.8521C166.946 28.8521 168.513 29.0597 169.986 29.475C171.458 29.8904 172.818 30.5134 174.064 31.344C174.554 31.6083 174.875 31.967 175.026 32.4201C175.177 32.8354 175.196 33.2508 175.083 33.6661C175.007 34.0814 174.819 34.459 174.517 34.7988C174.215 35.1009 173.837 35.2896 173.384 35.3652C172.969 35.4029 172.497 35.2896 171.968 35.0253C170.835 34.308 169.703 33.7982 168.57 33.4962C167.475 33.1941 166.38 33.0431 165.285 33.0431C163.284 33.0431 161.774 33.4207 160.754 34.1758C159.772 34.8932 159.282 35.8749 159.282 37.1209C159.282 38.0648 159.584 38.8388 160.188 39.4429C160.792 40.047 161.736 40.4813 163.02 40.7456L168.4 41.8216C170.854 42.3125 172.704 43.1431 173.95 44.3136C175.234 45.4841 175.876 47.0699 175.876 49.071C175.876 51.6762 174.838 53.734 172.761 55.2443C170.684 56.7546 167.928 57.5097 164.492 57.5097Z" fill="#FAFCFF"/>
<path d="M185.015 57.2265C183.921 57.2265 183.033 56.8867 182.354 56.2071C181.674 55.5275 181.334 54.6591 181.334 53.6019C181.334 52.5447 181.674 51.6951 182.354 51.0533C183.033 50.3736 183.921 50.0338 185.015 50.0338C186.11 50.0338 186.979 50.3736 187.621 51.0533C188.263 51.6951 188.584 52.5447 188.584 53.6019C188.584 54.6591 188.263 55.5275 187.621 56.2071C186.979 56.8867 186.11 57.2265 185.015 57.2265Z" fill="#A55BF0"/>
<g clip-path="url(#clip0_27_5272)">
<path d="M22.907 22.3415C24.3532 26.6802 22.8767 31.0593 19.61 32.1314C16.3433 33.2034 12.5204 30.5537 11.0742 26.215C9.62795 21.8763 11.1045 17.4971 14.3712 16.4251C17.6379 15.353 21.4608 18.0028 22.907 22.3415ZM10.1539 33.0315C12.0653 36.3082 11.6001 40.121 9.12228 41.5369C6.64446 42.9528 3.08451 41.4459 1.18317 38.1691C-0.718176 34.8923 -0.273181 31.0796 2.20463 29.6637C4.68244 28.2478 8.2424 29.7547 10.1437 33.0315H10.1539ZM6.99844 53.5215C12.2979 39.231 21.7136 35.6003 25.8905 35.6003C30.0674 35.6003 39.4831 39.231 44.7825 53.5215C45.1466 54.5025 45.3084 55.5543 45.3084 56.6061V56.7679C45.3084 59.3772 43.1947 61.4909 40.5854 61.4909C39.4224 61.4909 38.2694 61.3493 37.1468 61.0661L28.2469 58.8412C26.6996 58.4568 25.0814 58.4568 23.534 58.8412L14.6341 61.0661C13.5115 61.3493 12.3586 61.4909 11.1955 61.4909C8.58626 61.4909 6.47254 59.3772 6.47254 56.7679V56.6061C6.47254 55.5543 6.63435 54.5025 6.99844 53.5215ZM42.6587 41.5369C40.1809 40.121 39.7157 36.3082 41.6271 33.0315C43.5386 29.7547 47.0884 28.2478 49.5662 29.6637C52.044 31.0796 52.5093 34.8923 50.5978 38.1691C48.6864 41.4459 45.1365 42.9528 42.6587 41.5369ZM31.3619 32.1314C28.0952 31.0593 26.6187 26.6802 28.0649 22.3415C29.5111 18.0028 33.334 15.353 36.6007 16.4251C39.8674 17.4971 41.3439 21.8763 39.8977 26.215C38.4515 30.5537 34.6286 33.2034 31.3619 32.1314Z" fill="#A55BF0"/>
</g>
<defs>
<clipPath id="clip0_27_5272">
<rect width="51.7812" height="51.7812" fill="white" transform="translate(0 12.9453)"/>
</clipPath>
</defs>
</svg>
