<svg width="119" height="48" viewBox="0 0 119 48" fill="none" xmlns="http://www.w3.org/2000/svg">
<path d="M44.69 36.245C44.1067 36.245 43.6517 36.0817 43.325 35.755C43.0217 35.4283 42.87 34.9733 42.87 34.39V13.18C42.87 12.5733 43.0333 12.1183 43.36 11.815C43.6867 11.4883 44.1417 11.325 44.725 11.325H53.09C55.75 11.325 57.8033 11.99 59.25 13.32C60.6967 14.6267 61.42 16.47 61.42 18.85C61.42 21.2533 60.6967 23.12 59.25 24.45C57.8033 25.7567 55.75 26.41 53.09 26.41H46.51V34.39C46.51 34.9733 46.3583 35.4283 46.055 35.755C45.7517 36.0817 45.2967 36.245 44.69 36.245ZM46.51 23.505H52.565C54.315 23.505 55.6333 23.12 56.52 22.35C57.43 21.5567 57.885 20.39 57.885 18.85C57.885 17.3333 57.43 16.19 56.52 15.42C55.6333 14.6267 54.315 14.23 52.565 14.23H46.51V23.505ZM72.1357 36.315C70.2691 36.315 68.6591 35.965 67.3057 35.265C65.9757 34.5417 64.9374 33.5267 64.1907 32.22C63.4674 30.89 63.1057 29.315 63.1057 27.495C63.1057 25.7217 63.4674 24.17 64.1907 22.84C64.9141 21.51 65.9057 20.4717 67.1657 19.725C68.4257 18.9783 69.8607 18.605 71.4707 18.605C72.6607 18.605 73.7224 18.8033 74.6557 19.2C75.5891 19.5733 76.3824 20.1333 77.0357 20.88C77.7124 21.6033 78.2141 22.49 78.5407 23.54C78.8907 24.59 79.0657 25.7683 79.0657 27.075C79.0657 27.4717 78.9491 27.775 78.7157 27.985C78.4824 28.1717 78.1324 28.265 77.6657 28.265H65.9057V26.095H76.6857L76.0907 26.585C76.0907 25.4183 75.9157 24.4267 75.5657 23.61C75.2391 22.7933 74.7374 22.175 74.0607 21.755C73.4074 21.3117 72.5907 21.09 71.6107 21.09C70.5141 21.09 69.5807 21.3467 68.8107 21.86C68.0641 22.3733 67.4924 23.085 67.0957 23.995C66.6991 24.905 66.5007 25.9667 66.5007 27.18V27.39C66.5007 29.4433 66.9791 30.995 67.9357 32.045C68.9157 33.0717 70.3274 33.585 72.1707 33.585C72.8707 33.585 73.6057 33.4917 74.3757 33.305C75.1691 33.1183 75.9157 32.8033 76.6157 32.36C77.0124 32.1267 77.3624 32.0217 77.6657 32.045C77.9924 32.0683 78.2491 32.1733 78.4357 32.36C78.6457 32.5467 78.7741 32.78 78.8207 33.06C78.8674 33.34 78.8207 33.6317 78.6807 33.935C78.5407 34.215 78.2957 34.4717 77.9457 34.705C77.1524 35.2417 76.2307 35.65 75.1807 35.93C74.1307 36.1867 73.1157 36.315 72.1357 36.315ZM90.1654 36.315C88.7654 36.315 87.5871 36.07 86.6304 35.58C85.6737 35.09 84.9621 34.3667 84.4954 33.41C84.0287 32.4533 83.7954 31.2867 83.7954 29.91V21.65H81.6954C81.2287 21.65 80.8671 21.5333 80.6104 21.3C80.3537 21.0433 80.2254 20.705 80.2254 20.285C80.2254 19.8417 80.3537 19.5033 80.6104 19.27C80.8671 19.0367 81.2287 18.92 81.6954 18.92H83.7954V15.315C83.7954 14.7317 83.9471 14.2883 84.2504 13.985C84.5771 13.6817 85.0204 13.53 85.5804 13.53C86.1404 13.53 86.5721 13.6817 86.8754 13.985C87.1787 14.2883 87.3304 14.7317 87.3304 15.315V18.92H91.4254C91.8921 18.92 92.2537 19.0367 92.5104 19.27C92.7671 19.5033 92.8954 19.8417 92.8954 20.285C92.8954 20.705 92.7671 21.0433 92.5104 21.3C92.2537 21.5333 91.8921 21.65 91.4254 21.65H87.3304V29.63C87.3304 30.8667 87.5871 31.8 88.1004 32.43C88.6371 33.06 89.5004 33.375 90.6904 33.375C91.1104 33.375 91.4721 33.34 91.7754 33.27C92.1021 33.1767 92.3704 33.1183 92.5804 33.095C92.8371 33.095 93.0471 33.1883 93.2104 33.375C93.3737 33.5383 93.4554 33.865 93.4554 34.355C93.4554 34.705 93.3854 35.0317 93.2454 35.335C93.1287 35.6383 92.9071 35.8367 92.5804 35.93C92.3004 36.0233 91.9154 36.105 91.4254 36.175C90.9587 36.2683 90.5387 36.315 90.1654 36.315ZM101.654 36.315C100.627 36.315 99.5653 36.1983 98.4686 35.965C97.3953 35.7317 96.4036 35.335 95.4936 34.775C95.1903 34.565 94.9803 34.3317 94.8636 34.075C94.7469 33.8183 94.7003 33.5617 94.7236 33.305C94.7703 33.025 94.8753 32.7917 95.0386 32.605C95.2253 32.395 95.4469 32.2667 95.7036 32.22C95.9836 32.1733 96.2753 32.2317 96.5786 32.395C97.4886 32.9083 98.3636 33.27 99.2036 33.48C100.044 33.6667 100.872 33.76 101.689 33.76C102.925 33.76 103.859 33.5383 104.489 33.095C105.119 32.6517 105.434 32.0567 105.434 31.31C105.434 30.7033 105.224 30.2367 104.804 29.91C104.384 29.56 103.754 29.2917 102.914 29.105L99.5886 28.44C98.1419 28.1367 97.0453 27.6 96.2986 26.83C95.5519 26.06 95.1786 25.08 95.1786 23.89C95.1786 22.8167 95.4703 21.8833 96.0536 21.09C96.6369 20.2967 97.4536 19.69 98.5036 19.27C99.5536 18.8267 100.767 18.605 102.144 18.605C103.17 18.605 104.139 18.7333 105.049 18.99C105.959 19.2467 106.799 19.6317 107.569 20.145C107.872 20.3083 108.07 20.53 108.164 20.81C108.257 21.0667 108.269 21.3233 108.199 21.58C108.152 21.8367 108.035 22.07 107.849 22.28C107.662 22.4667 107.429 22.5833 107.149 22.63C106.892 22.6533 106.6 22.5833 106.274 22.42C105.574 21.9767 104.874 21.6617 104.174 21.475C103.497 21.2883 102.82 21.195 102.144 21.195C100.907 21.195 99.9736 21.4283 99.3436 21.895C98.7369 22.3383 98.4336 22.945 98.4336 23.715C98.4336 24.2983 98.6203 24.7767 98.9936 25.15C99.3669 25.5233 99.9503 25.7917 100.744 25.955L104.069 26.62C105.585 26.9233 106.729 27.4367 107.499 28.16C108.292 28.8833 108.689 29.8633 108.689 31.1C108.689 32.71 108.047 33.9817 106.764 34.915C105.48 35.8483 103.777 36.315 101.654 36.315Z" fill="black"/>
<path d="M114.337 36.14C113.66 36.14 113.112 35.93 112.692 35.51C112.272 35.09 112.062 34.5533 112.062 33.9C112.062 33.2467 112.272 32.7217 112.692 32.325C113.112 31.905 113.66 31.695 114.337 31.695C115.013 31.695 115.55 31.905 115.947 32.325C116.343 32.7217 116.542 33.2467 116.542 33.9C116.542 34.5533 116.343 35.09 115.947 35.51C115.55 35.93 115.013 36.14 114.337 36.14Z" fill="#6619B3"/>
<path d="M14.1562 13.8062C15.05 16.4875 14.1375 19.1937 12.1187 19.8562C10.1 20.5187 7.73747 18.8812 6.84372 16.2C5.94997 13.5187 6.86247 10.8125 8.88122 10.15C10.9 9.4875 13.2625 11.125 14.1562 13.8062ZM6.27497 20.4125C7.45622 22.4375 7.16872 24.7937 5.63747 25.6687C4.10622 26.5437 1.90622 25.6125 0.731219 23.5875C-0.443781 21.5625 -0.168781 19.2062 1.36247 18.3312C2.89372 17.4562 5.09372 18.3875 6.26872 20.4125H6.27497ZM4.32497 33.075C7.59997 24.2437 13.4187 22 16 22C18.5812 22 24.4 24.2437 27.675 33.075C27.9 33.6812 28 34.3312 28 34.9812V35.0812C28 36.6937 26.6937 38 25.0812 38C24.3625 38 23.65 37.9125 22.9562 37.7375L17.4562 36.3625C16.5 36.125 15.5 36.125 14.5437 36.3625L9.04372 37.7375C8.34997 37.9125 7.63747 38 6.91872 38C5.30622 38 3.99997 36.6937 3.99997 35.0812V34.9812C3.99997 34.3312 4.09997 33.6812 4.32497 33.075ZM26.3625 25.6687C24.8312 24.7937 24.5437 22.4375 25.725 20.4125C26.9062 18.3875 29.1 17.4562 30.6312 18.3312C32.1625 19.2062 32.45 21.5625 31.2687 23.5875C30.0875 25.6125 27.8937 26.5437 26.3625 25.6687ZM19.3812 19.8562C17.3625 19.1937 16.45 16.4875 17.3437 13.8062C18.2375 11.125 20.6 9.4875 22.6187 10.15C24.6375 10.8125 25.55 13.5187 24.6562 16.2C23.7625 18.8812 21.4 20.5187 19.3812 19.8562Z" fill="#6619B3"/>
</svg>
