<svg width="45" height="50" viewBox="0 0 45 50" fill="none" xmlns="http://www.w3.org/2000/svg">
<g clip-path="url(#clip0_27_5293)">
<path d="M40.1786 3.125H4.82143C3.54271 3.125 2.31636 3.61886 1.41216 4.49794C0.50797 5.37701 0 6.5693 0 7.8125L0 42.1875C0 43.4307 0.50797 44.623 1.41216 45.5021C2.31636 46.3811 3.54271 46.875 4.82143 46.875H18.6077V32.001H12.2796V25H18.6077V19.6641C18.6077 13.5947 22.3242 10.2422 28.0165 10.2422C30.7426 10.2422 33.5933 10.7148 33.5933 10.7148V16.6719H30.4523C27.3576 16.6719 26.3923 18.5391 26.3923 20.4541V25H33.301L32.1961 32.001H26.3923V46.875H40.1786C41.4573 46.875 42.6836 46.3811 43.5878 45.5021C44.492 44.623 45 43.4307 45 42.1875V7.8125C45 6.5693 44.492 5.37701 43.5878 4.49794C42.6836 3.61886 41.4573 3.125 40.1786 3.125Z" fill="#A55BF0"/>
</g>
<defs>
<clipPath id="clip0_27_5293">
<rect width="45" height="50" fill="white"/>
</clipPath>
</defs>
</svg>
