<svg width="81" height="81" viewBox="0 0 81 81" fill="none" xmlns="http://www.w3.org/2000/svg">
<path d="M79.502 40.1035C79.502 61.9771 61.816 79.707 40.002 79.707C18.1879 79.707 0.501953 61.9771 0.501953 40.1035C0.501953 18.2299 18.1879 0.5 40.002 0.5C61.816 0.5 79.502 18.2299 79.502 40.1035Z" fill="#E6EAF0" stroke="#474D59"/>
<path d="M40.002 58.1502L38.7242 56.9659C35.0205 53.5069 31.9649 50.5462 29.5575 48.0836C27.1501 45.621 25.2334 43.4403 23.8075 41.5417C22.3816 39.643 21.3908 37.9418 20.8353 36.4379C20.2797 34.934 20.002 33.4489 20.002 31.9826C20.002 29.1628 20.9371 26.8036 22.8075 24.905C24.6779 23.0063 26.9834 22.057 29.7242 22.057C31.7612 22.057 33.6501 22.6116 35.3908 23.7207C37.1316 24.8298 38.6686 26.4371 40.002 28.5425C41.4464 26.3619 43.0112 24.7358 44.6964 23.6643C46.3816 22.5928 48.2427 22.057 50.2797 22.057C53.0205 22.057 55.326 23.0063 57.1964 24.905C59.0668 26.8036 60.002 29.1628 60.002 31.9826C60.002 33.4489 59.7242 34.934 59.1686 36.4379C58.6131 37.9418 57.6316 39.6336 56.2242 41.5135C54.8168 43.3933 52.9001 45.574 50.4742 48.0554C48.0483 50.5368 44.9834 53.5069 41.2797 56.9659L40.002 58.1502ZM40.002 55.8379C43.6316 52.4542 46.6223 49.5592 48.9742 47.153C51.326 44.7468 53.1964 42.6508 54.5853 40.8649C55.9742 39.0791 56.9371 37.4906 57.4742 36.0995C58.0112 34.7084 58.2797 33.3361 58.2797 31.9826C58.2797 29.614 57.5205 27.659 56.002 26.1175C54.4834 24.576 52.576 23.8053 50.2797 23.8053C48.3908 23.8053 46.6686 24.3598 45.1131 25.4689C43.5575 26.5781 42.0945 28.2981 40.7242 30.6291H39.2797C37.8723 28.2981 36.3908 26.5781 34.8353 25.4689C33.2797 24.3598 31.576 23.8053 29.7242 23.8053C27.4649 23.8053 25.5668 24.576 24.0297 26.1175C22.4927 27.659 21.7242 29.614 21.7242 31.9826C21.7242 33.3361 21.9927 34.7084 22.5297 36.0995C23.0668 37.4906 24.0205 39.0885 25.3908 40.8931C26.7612 42.6978 28.6316 44.7938 31.002 47.1812C33.3723 49.5686 36.3723 52.4542 40.002 55.8379Z" fill="#474D59"/>
</svg>
