<svg width="80" height="81" viewBox="0 0 80 81" fill="none" xmlns="http://www.w3.org/2000/svg">
<path d="M79.5 40.1035C79.5 61.9771 61.814 79.707 40 79.707C18.186 79.707 0.5 61.9771 0.5 40.1035C0.5 18.2299 18.186 0.5 40 0.5C61.814 0.5 79.5 18.2299 79.5 40.1035Z" fill="#E6EAF0" stroke="#474D59"/>
<path d="M39.845 38.0599C37.6015 38.0599 35.7507 37.2979 34.2925 35.7738C32.8342 34.2497 32.1051 32.3331 32.1051 30.0238C32.1051 27.7146 32.8342 25.8095 34.2925 24.3085C35.7507 22.8075 37.6015 22.057 39.845 22.057C42.0885 22.057 43.9393 22.8075 45.3975 24.3085C46.8558 25.8095 47.5849 27.7146 47.5849 30.0238C47.5849 32.3331 46.8558 34.2497 45.3975 35.7738C43.9393 37.2979 42.0885 38.0599 39.845 38.0599ZM21 58.1502V54.1321C21 52.8851 21.3365 51.7883 22.0096 50.8415C22.6826 49.8947 23.58 49.1442 24.7017 48.59C27.349 47.3892 29.9289 46.477 32.4416 45.8536C34.9543 45.2301 37.4221 44.9183 39.845 44.9183C42.2679 44.9183 44.7357 45.2301 47.2484 45.8536C49.7611 46.477 52.3186 47.3892 54.921 48.59C56.0876 49.1442 57.0074 49.8947 57.6804 50.8415C58.3535 51.7883 58.69 52.8851 58.69 54.1321V58.1502H21ZM23.0864 56.0026H56.6036V54.1321C56.6036 53.4393 56.3792 52.7581 55.9306 52.0885C55.4819 51.4188 54.8537 50.8761 54.0461 50.4605C51.6231 49.2597 49.2563 48.3937 46.9455 47.8626C44.6348 47.3315 42.2679 47.0659 39.845 47.0659C37.4221 47.0659 35.044 47.3315 32.7108 47.8626C30.3776 48.3937 28.022 49.2597 25.6439 50.4605C24.8363 50.8761 24.2081 51.4188 23.7594 52.0885C23.3108 52.7581 23.0864 53.4393 23.0864 54.1321V56.0026ZM39.845 35.9123C41.4603 35.9123 42.8176 35.3581 43.9169 34.2497C45.0162 33.1413 45.5658 31.7557 45.5658 30.0931C45.5658 28.4305 45.0162 27.0334 43.9169 25.9019C42.8176 24.7703 41.4603 24.2046 39.845 24.2046C38.2297 24.2046 36.8724 24.7703 35.7731 25.9019C34.6738 27.0334 34.1242 28.4305 34.1242 30.0931C34.1242 31.7557 34.6738 33.1413 35.7731 34.2497C36.8724 35.3581 38.2297 35.9123 39.845 35.9123Z" fill="#474D59"/>
</svg>
