<svg width="81" height="80" viewBox="0 0 81 80" fill="none" xmlns="http://www.w3.org/2000/svg">
<circle cx="40.0017" cy="40" r="39.5" fill="#E6EAF0" stroke="#474D59"/>
<path d="M36.3257 42.1577L37.848 37.0714L33.852 34.137H38.7519L40.3217 28.9039L41.844 34.137H46.7914L42.843 37.0714L44.3177 42.1577L40.3217 39.0276L36.3257 42.1577ZM30.9026 58.1502V45.3855C29.6023 44.0813 28.6271 42.5978 27.9769 40.935C27.3268 39.2722 27.0017 37.5441 27.0017 35.7509C27.0017 31.9036 28.2861 28.6594 30.855 26.0185C33.4239 23.3775 36.5794 22.057 40.3217 22.057C44.064 22.057 47.2196 23.3775 49.7884 26.0185C52.3573 28.6594 53.6417 31.9036 53.6417 35.7509C53.6417 37.5441 53.3166 39.2722 52.6665 40.935C52.0163 42.5978 51.0411 44.0813 49.7409 45.3855V58.1502L40.3217 55.2647L30.9026 58.1502ZM40.3217 47.9287C43.62 47.9287 46.4188 46.7549 48.7181 44.4074C51.0174 42.0599 52.167 39.1744 52.167 35.7509C52.167 32.36 51.0253 29.4827 48.7418 27.1189C46.4584 24.755 43.6517 23.5731 40.3217 23.5731C37.0234 23.5731 34.2246 24.7469 31.9254 27.0944C29.6261 29.4419 28.4764 32.3274 28.4764 35.7509C28.4764 39.1418 29.6181 42.0191 31.9016 44.3829C34.185 46.7467 36.9917 47.9287 40.3217 47.9287ZM32.3297 56.1939L40.3217 53.6507L48.3137 56.1939V46.6571C47.1403 47.6026 45.8717 48.3036 44.508 48.7601C43.1443 49.2165 41.7489 49.4448 40.3217 49.4448C38.8946 49.4448 37.4991 49.2165 36.1354 48.7601C34.7717 48.3036 33.5031 47.6026 32.3297 46.6571V56.1939Z" fill="#474D59"/>
</svg>
