<svg width="30" height="23" viewBox="0 0 30 23" fill="none" xmlns="http://www.w3.org/2000/svg">
<path d="M2.8125 0C1.25977 0 0 1.25977 0 2.8125C0 3.69727 0.416016 4.5293 1.125 5.0625L13.875 14.625C14.543 15.123 15.457 15.123 16.125 14.625L28.875 5.0625C29.584 4.5293 30 3.69727 30 2.8125C30 1.25977 28.7402 0 27.1875 0H2.8125ZM0 6.5625V18.75C0 20.8184 1.68164 22.5 3.75 22.5H26.25C28.3184 22.5 30 20.8184 30 18.75V6.5625L17.25 16.125C15.9141 17.127 14.0859 17.127 12.75 16.125L0 6.5625Z" fill="#A55BF0"/>
</svg>
