<svg width="45" height="50" viewBox="0 0 45 50" fill="none" xmlns="http://www.w3.org/2000/svg">
<path d="M40.1786 3.125H4.82143C2.1596 3.125 0 5.22461 0 7.8125V42.1875C0 44.7754 2.1596 46.875 4.82143 46.875H40.1786C42.8404 46.875 45 44.7754 45 42.1875V7.8125C45 5.22461 42.8404 3.125 40.1786 3.125ZM35.2667 18.6328C35.2868 18.9062 35.2868 19.1895 35.2868 19.4629C35.2868 27.9297 28.6574 37.6855 16.5435 37.6855C12.8069 37.6855 9.34152 36.6309 6.42857 34.8145C6.96094 34.873 7.47321 34.8926 8.01562 34.8926C11.0993 34.8926 13.9319 33.877 16.192 32.1582C13.2991 32.0996 10.8683 30.2539 10.0346 27.7148C11.0491 27.8613 11.9632 27.8613 13.0078 27.5977C9.99442 27.002 7.73437 24.4238 7.73437 21.3086V21.2305C8.60826 21.709 9.63281 22.002 10.7076 22.041C9.804 21.4567 9.06326 20.6639 8.55148 19.7335C8.03969 18.8032 7.77278 17.7641 7.77455 16.709C7.77455 15.5176 8.09598 14.4238 8.66853 13.4766C11.9129 17.3633 16.7846 19.9023 22.2489 20.1758C21.3147 15.8301 24.6596 12.3047 28.6775 12.3047C30.5759 12.3047 32.2835 13.0762 33.4888 14.3262C34.9754 14.0527 36.4018 13.5156 37.6674 12.7832C37.1752 14.2676 36.1406 15.5176 34.7746 16.3086C36.1004 16.1719 37.3862 15.8105 38.5714 15.3125C37.6775 16.5918 36.5525 17.7246 35.2667 18.6328Z" fill="#A55BF0"/>
</svg>
