<svg width="45" height="50" viewBox="0 0 45 50" fill="none" xmlns="http://www.w3.org/2000/svg">
<g clip-path="url(#clip0_27_5289)">
<path d="M22.5 19.791C21.4404 19.7914 20.4047 20.0972 19.5239 20.6698C18.6431 21.2424 17.9567 22.0561 17.5515 23.008C17.1462 23.9598 17.0404 25.0071 17.2474 26.0174C17.4543 27.0277 17.9648 27.9557 18.7142 28.684C19.4636 29.4123 20.4182 29.9082 21.4575 30.109C22.4967 30.3099 23.5739 30.2066 24.5528 29.8123C25.5317 29.418 26.3684 28.7503 26.957 27.8938C27.5456 27.0372 27.8598 26.0302 27.8598 25C27.8588 23.6185 27.2937 22.2939 26.2887 21.3171C25.2837 20.3404 23.921 19.7915 22.5 19.791ZM35.0267 15.7871C34.7539 15.1151 34.342 14.5047 33.8166 13.9939C33.2911 13.483 32.6633 13.0826 31.9721 12.8174C29.8627 12.0078 24.8404 12.1895 22.5 12.1895C20.1596 12.1895 15.1423 12.001 13.0269 12.8174C12.3357 13.0826 11.7079 13.483 11.1824 13.9939C10.657 14.5047 10.2451 15.1151 9.97232 15.7871C9.14062 17.8379 9.32645 22.7256 9.32645 24.999C9.32645 27.2725 9.14062 32.1543 9.97634 34.2119C10.2491 34.8839 10.661 35.4943 11.1864 36.0052C11.7119 36.516 12.3397 36.9165 13.0309 37.1816C15.1403 37.9912 20.1626 37.8096 22.504 37.8096C24.8454 37.8096 29.8607 37.998 31.9761 37.1816C32.6673 36.9165 33.2952 36.516 33.8206 36.0052C34.3461 35.4943 34.7579 34.8839 35.0307 34.2119C35.8694 32.1611 35.6766 27.2734 35.6766 25C35.6766 22.7266 35.8694 17.8457 35.0307 15.7881L35.0267 15.7871ZM22.5 33.0078C20.871 33.0078 19.2785 32.5382 17.924 31.6583C16.5695 30.7783 15.5138 29.5277 14.8904 28.0645C14.267 26.6012 14.1038 24.9911 14.4217 23.4378C14.7395 21.8844 15.5239 20.4575 16.6758 19.3376C17.8277 18.2177 19.2954 17.455 20.8931 17.1461C22.4909 16.8371 24.147 16.9957 25.652 17.6017C27.1571 18.2078 28.4434 19.2342 29.3485 20.5511C30.2535 21.868 30.7366 23.4162 30.7366 25C30.7379 26.052 30.5258 27.0938 30.1123 28.066C29.6989 29.0381 29.0922 29.9214 28.3271 30.6652C27.562 31.4091 26.6535 31.9989 25.6536 32.4009C24.6537 32.8028 23.582 33.0091 22.5 33.0078ZM31.0761 18.5254C30.6958 18.5256 30.324 18.4161 30.0077 18.2109C29.6914 18.0056 29.4449 17.7137 29.2992 17.3722C29.1535 17.0307 29.1153 16.6548 29.1894 16.2922C29.2635 15.9296 29.4465 15.5964 29.7153 15.3349C29.9841 15.0734 30.3267 14.8953 30.6997 14.8231C31.0726 14.7509 31.4592 14.7879 31.8106 14.9293C32.162 15.0707 32.4623 15.3103 32.6736 15.6177C32.8849 15.9251 32.9977 16.2865 32.9977 16.6562C32.9987 16.9018 32.9499 17.1451 32.854 17.3722C32.7581 17.5994 32.6171 17.8059 32.4389 17.9799C32.2608 18.1539 32.049 18.292 31.8159 18.3863C31.5827 18.4806 31.3327 18.5292 31.0801 18.5293L31.0761 18.5254ZM40.1786 3.125H4.82143C3.54271 3.125 2.31636 3.61886 1.41216 4.49794C0.50797 5.37701 0 6.5693 0 7.8125L0 42.1875C0 43.4307 0.50797 44.623 1.41216 45.5021C2.31636 46.3811 3.54271 46.875 4.82143 46.875H40.1786C41.4573 46.875 42.6836 46.3811 43.5878 45.5021C44.492 44.623 45 43.4307 45 42.1875V7.8125C45 6.5693 44.492 5.37701 43.5878 4.49794C42.6836 3.61886 41.4573 3.125 40.1786 3.125ZM38.4589 31.4453C38.3294 33.9482 37.7417 36.166 35.8624 37.9883C33.983 39.8105 31.7039 40.3936 29.1325 40.5127C26.4797 40.6582 18.5263 40.6582 15.8735 40.5127C13.2991 40.3867 11.026 39.8145 9.14364 37.9883C7.26127 36.1621 6.66964 33.9434 6.5471 31.4453C6.39743 28.8652 6.39743 21.1318 6.5471 18.5547C6.67667 16.0518 7.25725 13.834 9.14364 12.0117C11.03 10.1895 13.3092 9.61328 15.8735 9.49414C18.5263 9.34863 26.4797 9.34863 29.1325 9.49414C31.7069 9.62012 33.9871 10.1924 35.8624 12.0186C37.7377 13.8447 38.3364 16.0635 38.4589 18.5664C38.6086 21.1367 38.6086 28.8633 38.4589 31.4453Z" fill="#A55BF0"/>
</g>
<defs>
<clipPath id="clip0_27_5289">
<rect width="45" height="50" fill="white"/>
</clipPath>
</defs>
</svg>
