<svg width="80" height="81" viewBox="0 0 80 81" fill="none" xmlns="http://www.w3.org/2000/svg">
<path d="M79.5 40.1035C79.5 61.9771 61.814 79.707 40 79.707C18.186 79.707 0.5 61.9771 0.5 40.1035C0.5 18.2299 18.186 0.5 40 0.5C61.814 0.5 79.5 18.2299 79.5 40.1035Z" fill="#E6EAF0" stroke="#474D59"/>
<path d="M19.6857 42.5909C18.756 41.1797 18.076 39.7331 17.6456 38.2513C17.2152 36.7695 17 35.3229 17 33.9117C17 30.6305 18.1276 27.8344 20.3829 25.5234C22.6382 23.2125 25.3669 22.057 28.5691 22.057C30.6694 22.057 32.6665 22.6127 34.5602 23.7241C36.454 24.8354 38.1756 26.4143 39.725 28.4606C41.2744 26.4143 42.996 24.8354 44.8898 23.7241C46.7835 22.6127 48.7806 22.057 50.8809 22.057C54.0831 22.057 56.8118 23.2125 59.0671 25.5234C61.3224 27.8344 62.45 30.6305 62.45 33.9117C62.45 35.2524 62.2348 36.646 61.8044 38.0925C61.374 39.5391 60.694 41.0209 59.7643 42.538C59.5577 42.3616 59.3339 42.2117 59.0929 42.0882L58.4215 41.7442C59.2134 40.3682 59.816 39.0275 60.2291 37.7221C60.6423 36.4167 60.8489 35.1465 60.8489 33.9117C60.8489 31.0891 59.8762 28.6811 57.9308 26.6877C55.9854 24.6943 53.6355 23.6976 50.8809 23.6976C49.1593 23.6976 47.3516 24.2533 45.4579 25.3647C43.5641 26.476 41.6532 28.3548 39.725 31.0009C37.7968 28.3548 35.8859 26.476 33.9921 25.3647C32.0984 24.2533 30.2907 23.6976 28.5691 23.6976C25.8145 23.6976 23.4646 24.6943 21.5192 26.6877C19.5738 28.6811 18.6011 31.0891 18.6011 33.9117C18.6011 35.1818 18.8077 36.4784 19.2209 37.8015C19.634 39.1245 20.2366 40.4564 21.0285 41.7971C20.7875 41.9382 20.5551 42.0705 20.3313 42.194C20.1075 42.3175 19.8923 42.4498 19.6857 42.5909ZM17 58.1502V56.5625C17 55.3276 17.6542 54.3045 18.9626 53.493C20.271 52.6815 21.9582 52.2758 24.0241 52.2758C24.4373 52.2758 24.816 52.2934 25.1603 52.3287C25.5047 52.364 25.8318 52.4169 26.1416 52.4875C25.9351 52.9461 25.7801 53.4312 25.6768 53.9428C25.5735 54.4544 25.5219 55.0101 25.5219 55.6099V58.1502H17ZM29.3955 58.1502V55.7687C29.3955 54.0046 30.3509 52.6021 32.2619 51.5613C34.1729 50.5205 36.6606 50.0001 39.725 50.0001C42.8239 50.0001 45.3202 50.5205 47.2139 51.5613C49.1077 52.6021 50.0545 54.0046 50.0545 55.7687V58.1502H29.3955ZM53.9281 58.1502V55.6099C53.9281 55.0101 53.8851 54.4544 53.799 53.9428C53.7129 53.4312 53.5494 52.9461 53.3084 52.4875C53.6527 52.4169 54.0056 52.364 54.3671 52.3287C54.7287 52.2934 55.0988 52.2758 55.4776 52.2758C57.5779 52.2758 59.2651 52.6815 60.539 53.493C61.813 54.3045 62.45 55.3276 62.45 56.5625V58.1502H53.9281ZM39.725 51.6407C37.0393 51.6407 34.8873 52.0288 33.269 52.805C31.6507 53.5812 30.876 54.622 30.9449 55.9274V56.5096H48.5051V55.8745C48.574 54.6044 47.8079 53.5812 46.2068 52.805C44.6057 52.0288 42.4451 51.6407 39.725 51.6407ZM24.0241 50.5293C23.2666 50.5293 22.6296 50.2559 22.1131 49.709C21.5966 49.1622 21.3384 48.5006 21.3384 47.7244C21.3384 46.9835 21.5966 46.3484 22.1131 45.8192C22.6296 45.29 23.2666 45.0254 24.0241 45.0254C24.7472 45.0254 25.3755 45.29 25.9092 45.8192C26.4429 46.3484 26.7098 46.9835 26.7098 47.7244C26.7098 48.5006 26.4429 49.1622 25.9092 49.709C25.3755 50.2559 24.7472 50.5293 24.0241 50.5293ZM55.4776 50.5293C54.7201 50.5293 54.0745 50.2559 53.5408 49.709C53.0071 49.1622 52.7402 48.5006 52.7402 47.7244C52.7402 46.9835 53.0071 46.3484 53.5408 45.8192C54.0745 45.29 54.7201 45.0254 55.4776 45.0254C56.2351 45.0254 56.872 45.29 57.3885 45.8192C57.905 46.3484 58.1632 46.9835 58.1632 47.7244C58.1632 48.5006 57.905 49.1622 57.3885 49.709C56.872 50.2559 56.2351 50.5293 55.4776 50.5293ZM39.725 48.4124C38.4855 48.4124 37.4181 47.9626 36.5228 47.0629C35.6276 46.1632 35.18 45.0783 35.18 43.8082C35.18 42.4675 35.619 41.3561 36.497 40.474C37.375 39.592 38.451 39.151 39.725 39.151C40.999 39.151 42.075 39.592 42.953 40.474C43.831 41.3561 44.27 42.4498 44.27 43.7552C44.27 45.0607 43.831 46.1632 42.953 47.0629C42.075 47.9626 40.999 48.4124 39.725 48.4124ZM39.725 40.7916C38.9331 40.7916 38.2444 41.0738 37.6591 41.6383C37.0738 42.2028 36.7811 42.9261 36.7811 43.8082C36.7811 44.6196 37.0738 45.3253 37.6591 45.9251C38.2444 46.5249 38.9331 46.8247 39.725 46.8247C40.5514 46.8247 41.2486 46.5249 41.8167 45.9251C42.3849 45.3253 42.6689 44.602 42.6689 43.7552C42.6689 42.9085 42.3935 42.2028 41.8426 41.6383C41.2916 41.0738 40.5858 40.7916 39.725 40.7916Z" fill="#474D59"/>
</svg>
