<svg width="23" height="30" viewBox="0 0 23 30" fill="none" xmlns="http://www.w3.org/2000/svg">
<path d="M12.6715 29.3259C15.6851 25.5544 22.5584 16.4136 22.5584 11.2792C22.5584 5.05214 17.5062 0 11.2792 0C5.05214 0 0 5.05214 0 11.2792C0 16.4136 6.87326 25.5544 9.88691 29.3259C10.6095 30.2247 11.9489 30.2247 12.6715 29.3259ZM11.2792 15.0389C9.20546 15.0389 7.51946 13.3529 7.51946 11.2792C7.51946 9.20546 9.20546 7.51946 11.2792 7.51946C13.3529 7.51946 15.0389 9.20546 15.0389 11.2792C15.0389 13.3529 13.3529 15.0389 11.2792 15.0389Z" fill="#A55BF0"/>
</svg>
