<svg width="80" height="82" viewBox="0 0 80 82" fill="none" xmlns="http://www.w3.org/2000/svg">
<path d="M79.3186 40.9091C79.3186 63.2382 61.6629 81.3182 39.9093 81.3182C18.1557 81.3182 0.5 63.2382 0.5 40.9091C0.5 18.58 18.1557 0.5 39.9093 0.5C61.6629 0.5 79.3186 18.58 79.3186 40.9091Z" fill="#B675FF" stroke="#6619B3"/>
<path d="M31.4287 60.3409L29.9321 59.1648V49.858H25.4423C25.0099 49.858 24.6524 49.7131 24.3697 49.4233C24.087 49.1335 23.9457 48.7671 23.9457 48.3239V30.4262H22.6985C22.4657 30.4262 22.2828 30.3495 22.1497 30.196C22.0167 30.0426 21.9502 29.8637 21.9502 29.6591C21.9502 29.4205 22.0167 29.233 22.1497 29.0966C22.2828 28.9602 22.4657 28.8921 22.6985 28.8921H29.9321V23.0625H27.6872C27.4544 23.0625 27.2714 22.9858 27.1384 22.8324C27.0054 22.679 26.9389 22.483 26.9389 22.2443C26.9389 22.0398 27.0054 21.8608 27.1384 21.7074C27.2714 21.554 27.4544 21.4773 27.6872 21.4773H33.6736C33.9064 21.4773 34.0893 21.554 34.2223 21.7074C34.3553 21.8608 34.4219 22.0568 34.4219 22.2955C34.4219 22.5 34.3553 22.679 34.2223 22.8324C34.0893 22.9858 33.9064 23.0625 33.6736 23.0625H31.4287V28.8921H38.6622C38.895 28.8921 39.0779 28.9688 39.211 29.1222C39.344 29.2756 39.4105 29.4546 39.4105 29.6591C39.4105 29.8977 39.344 30.0852 39.211 30.2216C39.0779 30.358 38.895 30.4262 38.6622 30.4262H37.415V48.3239C37.415 48.7671 37.2737 49.1335 36.991 49.4233C36.7083 49.7131 36.3508 49.858 35.9184 49.858H31.4287V60.3409ZM25.4423 48.3239H35.9184V43.108H31.1792C31.0129 43.108 30.8633 43.0398 30.7302 42.9034C30.5972 42.7671 30.5307 42.6137 30.5307 42.4432C30.5307 42.2727 30.5972 42.1193 30.7302 41.983C30.8633 41.8466 31.0129 41.7784 31.1792 41.7784H35.9184V36.9716H31.1792C31.0129 36.9716 30.8633 36.9034 30.7302 36.7671C30.5972 36.6307 30.5307 36.4773 30.5307 36.3068C30.5307 36.1364 30.5972 35.983 30.7302 35.8466C30.8633 35.7102 31.0129 35.6421 31.1792 35.6421H35.9184V30.4262H25.4423V48.3239ZM45.6463 60.3409C45.1807 60.3409 44.8066 60.196 44.5239 59.9063C44.2412 59.6165 44.0999 59.233 44.0999 58.7557V44.2841C44.0999 43.2955 44.2911 42.4943 44.6735 41.8807C45.056 41.2671 45.4468 40.7557 45.8459 40.3466C46.2782 39.8352 46.5942 39.4091 46.7937 39.0682C46.9933 38.7273 47.0931 38.3182 47.0931 37.8409V35.5398H45.8958C45.663 35.5398 45.4717 35.4631 45.3221 35.3097C45.1724 35.1563 45.0976 34.9773 45.0976 34.7727C45.0976 34.5341 45.1724 34.3466 45.3221 34.2102C45.4717 34.0739 45.663 34.0057 45.8958 34.0057H55.8731C56.0726 34.0057 56.2472 34.0824 56.3969 34.2358C56.5466 34.3892 56.6214 34.5682 56.6214 34.7727C56.6214 35.0114 56.5466 35.1989 56.3969 35.3352C56.2472 35.4716 56.0726 35.5398 55.8731 35.5398H54.6259V37.8409C54.6259 38.3182 54.734 38.7358 54.9502 39.0938C55.1664 39.4517 55.4906 39.8864 55.923 40.3977C56.3553 40.8068 56.7461 41.3012 57.0953 41.8807C57.4445 42.4602 57.6191 43.2614 57.6191 44.2841V58.7557C57.6191 59.233 57.4778 59.6165 57.1951 59.9063C56.9124 60.196 56.5383 60.3409 56.0726 60.3409H45.6463ZM45.6463 46.125H56.0726V44.2841C56.0726 43.5682 55.9147 42.9631 55.5987 42.4688C55.2828 41.9745 54.9086 41.4716 54.4763 40.9602C54.0772 40.483 53.7446 40.0142 53.4785 39.554C53.2125 39.0938 53.0794 38.5227 53.0794 37.8409V35.5398H48.6395V37.8409C48.6395 38.4887 48.5065 39.0512 48.2404 39.5284C47.9744 40.0057 47.6418 40.483 47.2427 40.9602C46.8104 41.4375 46.4362 41.9404 46.1203 42.4688C45.8043 42.9972 45.6463 43.6023 45.6463 44.2841V46.125ZM45.6463 52.2614H56.0726V47.4546H45.6463V52.2614ZM45.6463 58.7557H56.0726V53.5909H45.6463V58.7557Z" fill="#6619B3"/>
</svg>
