<svg width="80" height="82" viewBox="0 0 80 82" fill="none" xmlns="http://www.w3.org/2000/svg">
<path d="M79.138 40.9091C79.138 63.2392 61.5216 81.3182 39.819 81.3182C18.1164 81.3182 0.5 63.2392 0.5 40.9091C0.5 18.579 18.1164 0.5 39.819 0.5C61.5216 0.5 79.138 18.579 79.138 40.9091Z" fill="#FFEE82" stroke="#FFAE31"/>
<path d="M55.2248 58.8783L39.8191 43.103L32.9551 50.1549C33.2941 50.7469 33.5313 51.3215 33.6669 51.8787C33.8025 52.4359 33.8703 53.0453 33.8703 53.707C33.8703 55.5875 33.2517 57.1632 32.0145 58.4343C30.7773 59.7054 29.2435 60.3409 27.4131 60.3409C25.5488 60.3409 23.998 59.7054 22.7608 58.4343C21.5236 57.1632 20.905 55.5875 20.905 53.707C20.905 51.8265 21.5236 50.242 22.7608 48.9535C23.998 47.665 25.5318 47.0207 27.3622 47.0207C28.0063 47.0207 28.6164 47.1078 29.1926 47.2819C29.7689 47.456 30.3281 47.7172 30.8705 48.0655L37.7344 41.0136L30.8196 33.9095C30.2773 34.2229 29.7265 34.4493 29.1672 34.5886C28.6079 34.7278 28.0063 34.7975 27.3622 34.7975C25.5318 34.7975 23.998 34.162 22.7608 32.8909C21.5236 31.6198 20.905 30.0266 20.905 28.1113C20.905 26.2308 21.5236 24.655 22.7608 23.3839C23.998 22.1128 25.5318 21.4773 27.3622 21.4773C29.1926 21.4773 30.7349 22.1128 31.9891 23.3839C33.2432 24.655 33.8703 26.2308 33.8703 28.1113C33.8703 28.7729 33.811 29.3998 33.6923 29.9918C33.5737 30.5838 33.3449 31.141 33.0059 31.6633L58.428 57.7814V58.8783H55.2248ZM44.9543 38.0361L42.768 35.79L55.2248 22.9921H58.428V24.1413L44.9543 38.0361ZM27.3622 33.1782C28.7181 33.1782 29.879 32.6819 30.8451 31.6894C31.8111 30.697 32.2941 29.5042 32.2941 28.1113C32.2941 26.7183 31.8111 25.5256 30.8451 24.5331C29.879 23.5406 28.7181 23.0444 27.3622 23.0444C26.0064 23.0444 24.8539 23.5406 23.9048 24.5331C22.9557 25.5256 22.4812 26.7183 22.4812 28.1113C22.4812 29.5042 22.9557 30.697 23.9048 31.6894C24.8539 32.6819 26.0064 33.1782 27.3622 33.1782ZM39.9207 40.9613C39.8869 40.9613 39.8699 40.9701 39.8699 40.9875V41.0136H39.9207V40.9613ZM27.3622 58.7738C28.7181 58.7738 29.879 58.2776 30.8451 57.2851C31.8111 56.2926 32.2941 55.0999 32.2941 53.707C32.2941 52.314 31.8111 51.1213 30.8451 50.1288C29.879 49.1363 28.7181 48.6401 27.3622 48.6401C26.0064 48.6401 24.8539 49.1363 23.9048 50.1288C22.9557 51.1213 22.4812 52.314 22.4812 53.707C22.4812 55.0999 22.9557 56.2926 23.9048 57.2851C24.8539 58.2776 26.0064 58.7738 27.3622 58.7738Z" fill="#FFAE31"/>
</svg>
