<svg width="80" height="82" viewBox="0 0 80 82" fill="none" xmlns="http://www.w3.org/2000/svg">
<path d="M79.3186 40.9091C79.3186 63.2382 61.6629 81.3182 39.9093 81.3182C18.1557 81.3182 0.5 63.2382 0.5 40.9091C0.5 18.58 18.1557 0.5 39.9093 0.5C61.6629 0.5 79.3186 18.58 79.3186 40.9091Z" fill="#B675FF" stroke="#6619B3"/>
<path d="M53.3777 41.2769V42.6772H26.4412V41.2769C26.4412 37.5163 27.677 34.2858 30.1526 31.56C32.6328 28.829 35.6014 27.339 39.0759 27.0636L39.5364 27.0271V26.5651V21.9773H40.2824V26.5651V27.0271L40.7429 27.0636C44.2174 27.339 47.186 28.829 49.6663 31.56C52.1418 34.2858 53.3777 37.5163 53.3777 41.2769ZM27.2454 41.2769V41.7769H27.7454H52.0734H52.5734V41.2769C52.5734 37.6376 51.3431 34.5004 48.8872 31.8925C46.4283 29.2815 43.4264 27.9654 39.9094 27.9654C36.431 27.9654 33.4405 29.2713 30.9636 31.8589C28.4853 34.4479 27.2454 37.5971 27.2454 41.2769ZM30.1898 51.9946C29.8978 51.9946 29.6545 51.8955 29.4353 51.6791C29.2233 51.4697 29.1184 51.2213 29.1184 50.9009C29.1184 50.5805 29.2233 50.332 29.4353 50.1226C29.6545 49.9062 29.8978 49.8071 30.1898 49.8071C30.4811 49.8071 30.7084 49.9051 30.904 50.1111C31.1008 50.3184 31.2031 50.5705 31.2031 50.9009C31.2031 51.2312 31.1008 51.4834 30.904 51.6906C30.7084 51.8966 30.4811 51.9946 30.1898 51.9946ZM39.9094 51.9946C39.6182 51.9946 39.3908 51.8966 39.1953 51.6906C38.9985 51.4834 38.8962 51.2312 38.8962 50.9009C38.8962 50.5705 38.9985 50.3184 39.1953 50.1111C39.3908 49.9051 39.6182 49.8071 39.9094 49.8071C40.2007 49.8071 40.428 49.9051 40.6235 50.1111C40.8203 50.3184 40.9226 50.5705 40.9226 50.9009C40.9226 51.2312 40.8203 51.4834 40.6235 51.6906C40.428 51.8966 40.2007 51.9946 39.9094 51.9946ZM49.629 51.9946C49.3378 51.9946 49.1104 51.8966 48.9149 51.6906C48.7181 51.4834 48.6158 51.2312 48.6158 50.9009C48.6158 50.5705 48.7181 50.3184 48.9149 50.1111C49.1104 49.9051 49.3378 49.8071 49.629 49.8071C49.9211 49.8071 50.1644 49.9062 50.3835 50.1226C50.5956 50.332 50.7004 50.5805 50.7004 50.9009C50.7004 51.2213 50.5956 51.4697 50.3835 51.6791C50.1644 51.8955 49.9211 51.9946 49.629 51.9946ZM30.1898 59.8409C29.8978 59.8409 29.6545 59.7418 29.4353 59.5254C29.2233 59.316 29.1184 59.0675 29.1184 58.7472C29.1184 58.3717 29.2321 58.126 29.4229 57.9501C29.6398 57.7502 29.887 57.6534 30.1898 57.6534C30.4811 57.6534 30.7084 57.7514 30.904 57.9574C31.1008 58.1647 31.2031 58.4168 31.2031 58.7472C31.2031 59.0775 31.1008 59.3296 30.904 59.5369C30.7084 59.7429 30.4811 59.8409 30.1898 59.8409ZM39.9094 59.8409C39.6182 59.8409 39.3908 59.7429 39.1953 59.5369C38.9985 59.3296 38.8962 59.0775 38.8962 58.7472C38.8962 58.3618 39.0067 58.1125 39.1832 57.939C39.376 57.7495 39.607 57.6534 39.9094 57.6534C40.2007 57.6534 40.428 57.7514 40.6235 57.9574C40.8203 58.1647 40.9226 58.4168 40.9226 58.7472C40.9226 59.0775 40.8203 59.3296 40.6235 59.5369C40.428 59.7429 40.2007 59.8409 39.9094 59.8409ZM49.629 59.8409C49.3378 59.8409 49.1104 59.7429 48.9149 59.5369C48.7181 59.3296 48.6158 59.0775 48.6158 58.7472C48.6158 58.3618 48.7263 58.1125 48.9028 57.939C49.0956 57.7495 49.3266 57.6534 49.629 57.6534C49.9211 57.6534 50.1644 57.7525 50.3835 57.9689C50.5956 58.1783 50.7004 58.4268 50.7004 58.7472C50.7004 59.0675 50.5956 59.316 50.3835 59.5254C50.1644 59.7418 49.9211 59.8409 49.629 59.8409Z" stroke="#6619B3"/>
</svg>
